<?xml version="1.0" encoding="UTF-8"?>
<svg width="371px" height="127px" viewBox="0 0 371 127" version="1.1" xmlns="http://www.w3.org/2000/svg" xmlns:xlink="http://www.w3.org/1999/xlink">
    <title>Artboard</title>
    <g id="Artboard" stroke="none" stroke-width="1" fill="none" fill-rule="evenodd">
        <path d="M258.817523,110 L258.817523,110.547979 C258.731744,110.564764 258.647961,110.594384 258.560187,110.630916 C258.474408,110.669423 258.382645,110.715828 258.31482,110.792842 C258.245,110.869855 258.196126,110.975501 258.180167,111.064363 C258.1672,111.15125 258.188146,111.222339 258.20211,111.303301 C258.217072,111.386239 258.225051,111.47905 258.287889,111.646899 C258.351724,111.814749 258.482388,112.045788 258.603076,112.281765 L258.603076,112.281765 L264.986613,124.662141 C265.074387,124.832953 265.194078,124.985992 265.362644,125.119284 C265.530212,125.249614 265.766602,125.352299 266,125.452021 L266,125.452021 L266,126 L260.597932,126 L260.597932,125.452021 C260.685705,125.44511 260.773479,125.421413 260.841304,125.390805 C260.910127,125.360197 260.959998,125.319716 260.996903,125.28121 C261.0368,125.242703 261.061736,125.207158 261.0757,125.162728 C261.088666,125.119284 261.088666,125.06498 261.084676,125.004752 C261.080687,124.943536 261.07171,124.873434 261.03281,124.753965 C260.99391,124.632521 260.929078,124.459735 260.843299,124.297809 L260.843299,124.297809 L259.678303,122.046652 L252.187621,122.046652 L251.083469,124.204998 C250.991706,124.381734 250.929865,124.571305 250.871017,124.731256 C250.813166,124.891206 250.768282,125.024499 250.775264,125.117309 C250.783243,125.209133 250.846081,125.259488 250.901937,125.303919 C250.95879,125.350324 251.009659,125.390805 251.085464,125.417464 C251.161268,125.44511 251.263006,125.457945 251.359756,125.452021 L251.359756,125.452021 L251.359756,126 L247,126 L247,125.452021 C247.085779,125.435236 247.171558,125.408578 247.253347,125.371058 C247.335136,125.334526 247.41493,125.290096 247.508688,125.194323 C247.604441,125.097562 247.713161,124.94946 247.812904,124.792471 C247.911649,124.634496 247.993438,124.464671 248.075227,124.297809 L248.075227,124.297809 L253.75458,112.464425 C253.916164,112.122802 254.110662,111.795002 254.202425,111.550139 C254.294189,111.307251 254.31314,111.161123 254.298178,111.052515 C254.280225,110.942919 254.227361,110.87183 254.16552,110.809627 C254.102683,110.746436 254.032863,110.696081 253.943094,110.651651 C253.853326,110.60722 253.742611,110.570688 253.631897,110.547979 L253.631897,110.547979 L253.631897,110 L258.817523,110 Z M255.64008,114 L253,120 L258,120 L255.64008,114 Z" id="Combined-Shape" fill="#F8C823"></path>
        <path d="M245,126 L245,125.452021 C244.857115,125.452021 244.713251,125.433261 244.608534,125.402654 C244.500881,125.371058 244.430417,125.330577 244.374633,125.283184 C244.321785,125.234804 244.279702,125.178525 244.2523,125.115335 C244.225876,125.051157 244.216089,124.978093 244.216089,124.905029 L244.216089,111.094971 C244.216089,111.037704 244.223919,110.979451 244.239577,110.929096 C244.254257,110.879728 244.277745,110.839247 244.308084,110.794816 C244.338422,110.75236 244.378548,110.70793 244.444118,110.669423 C244.50871,110.630916 244.600705,110.596359 244.695635,110.574637 C244.793502,110.553903 244.89724,110.54403 244.998043,110.547979 L245,110 L240,110 L240,110.547979 C240.140928,110.547979 240.284792,110.566739 240.389509,110.598334 C240.496183,110.628942 240.565668,110.673372 240.618516,110.717803 C240.6743,110.763221 240.712468,110.809627 240.740849,110.873804 C240.768252,110.936995 240.782932,111.015983 240.782932,111.094971 L240.782932,124.905029 C240.782932,124.962296 240.776081,125.022524 240.756508,125.078803 C240.739871,125.136069 240.712468,125.190373 240.664514,125.240728 C240.618516,125.29207 240.551967,125.338476 240.483461,125.369084 C240.413975,125.400679 240.343511,125.417464 240.261304,125.431287 C240.181053,125.443135 240.089059,125.450046 240,125.452021 L240,126 L245,126" id="Fill-3" fill="#F8C823"></path>
        <path d="M238,127 L238,122.657111 L237.454523,122.657111 C237.455508,122.773915 237.428923,122.891725 237.3728,122.997453 C237.317662,123.104188 237.231015,123.197832 237.128615,123.271338 C237.029169,123.341823 236.910031,123.391163 236.790892,123.422378 C236.669785,123.453592 236.546708,123.463662 236.423631,123.463662 L226.363815,123.463662 L226.363815,111.116685 C226.363815,111.058283 226.371692,111.000888 226.3904,110.945507 C226.408123,110.891133 226.436677,110.837766 226.475077,110.788426 C226.515446,110.741101 226.567631,110.695789 226.638523,110.660546 C226.709415,110.627317 226.801969,110.602144 226.9024,110.586033 C226.999877,110.567909 227.106215,110.558846 227.213538,110.558846 L227.213538,110 L222.001969,110 L222.001969,110.558846 C222.181169,110.56086 222.361354,110.584019 222.484431,110.615234 C222.609477,110.647456 222.673477,110.686726 222.728615,110.72801 C222.784738,110.769295 222.827077,110.814606 222.8576,110.87905 C222.890092,110.9445 222.909785,111.030089 222.909785,111.116685 L222.909785,125.200616 C222.909785,125.263046 222.901908,125.326482 222.881231,125.386898 C222.859569,125.448321 222.825108,125.504709 222.774892,125.552035 C222.726646,125.601374 222.663631,125.640644 222.590769,125.670852 C222.517908,125.702067 222.4352,125.721199 222.336738,125.73731 C222.236308,125.751407 222.119138,125.758455 222,125.758455 L222.001969,126.317301 L236.423631,126.317301 C236.587077,126.317301 236.748554,126.323343 236.869662,126.341468 C236.992738,126.358586 237.075446,126.384766 237.140431,126.413967 C237.208369,126.445182 237.255631,126.482438 237.297969,126.525736 C237.340308,126.569034 237.376738,126.618374 237.406277,126.698928 C237.432862,126.779482 237.452554,126.889238 237.454523,127 L238,127" id="Fill-4" fill="#F8C823"></path>
        <path d="M213.817523,110 L213.817523,110.547979 C213.731744,110.564764 213.647961,110.594384 213.560187,110.630916 C213.472413,110.669423 213.382645,110.715828 213.312825,110.792842 C213.244002,110.869855 213.194131,110.975501 213.180167,111.064363 C213.166203,111.15125 213.188146,111.222339 213.201113,111.303301 C213.217072,111.386239 213.225051,111.47905 213.286892,111.646899 C213.34973,111.814749 213.482388,112.045788 213.603076,112.281765 L213.603076,112.281765 L219.986613,124.662141 C220.074387,124.832953 220.193081,124.985992 220.362644,125.119284 C220.530212,125.249614 220.765604,125.352299 221,125.452021 L221,125.452021 L221,126 L215.597932,126 L215.597932,125.452021 C215.685705,125.44511 215.773479,125.421413 215.841304,125.390805 C215.909129,125.360197 215.959998,125.319716 215.996903,125.28121 C216.035802,125.242703 216.061736,125.207158 216.074702,125.162728 C216.088666,125.119284 216.088666,125.06498 216.084676,125.004752 C216.080687,124.943536 216.070712,124.873434 216.031813,124.753965 C215.992913,124.632521 215.929078,124.459735 215.843299,124.297809 L215.843299,124.297809 L214.676308,122.046652 L207.187621,122.046652 L206.083469,124.204998 C205.991706,124.381734 205.928868,124.571305 205.871017,124.731256 C205.812169,124.891206 205.767284,125.024499 205.775264,125.117309 C205.783243,125.209133 205.845084,125.259488 205.901937,125.303919 C205.95879,125.350324 206.008662,125.390805 206.085464,125.417464 C206.161268,125.44511 206.260014,125.457945 206.357762,125.452021 L206.357762,125.452021 L206.357762,126 L202,126 L202,125.452021 C202.085779,125.435236 202.171558,125.408578 202.253347,125.371058 C202.335136,125.334526 202.41493,125.290096 202.508688,125.194323 C202.603444,125.097562 202.713161,124.94946 202.811906,124.792471 C202.911649,124.634496 202.993438,124.464671 203.075227,124.297809 L203.075227,124.297809 L208.751588,112.464425 C208.916164,112.122802 209.110662,111.795002 209.202425,111.550139 C209.293191,111.307251 209.31314,111.161123 209.295186,111.052515 C209.280225,110.942919 209.227361,110.87183 209.16552,110.809627 C209.102683,110.746436 209.032863,110.696081 208.943094,110.651651 C208.851331,110.60722 208.742611,110.570688 208.630899,110.547979 L208.630899,110.547979 L208.630899,110 L213.817523,110 Z M210.641527,114 L208,120 L213,120 L210.641527,114 Z" id="Combined-Shape" fill="#F8C823"></path>
        <path d="M193.668619,110 C194.210971,110 194.753323,110.022709 195.266276,110.077013 C195.777202,110.131317 196.257716,110.214255 196.7139,110.325825 C197.16907,110.439371 197.600924,110.582536 198.045956,110.815551 C198.493016,111.05054 198.95731,111.377353 199.298941,111.752546 C199.643613,112.1307 199.869678,112.561185 200.029849,113.056834 C200.19002,113.554459 200.287339,114.115273 200.295449,114.687936 C200.303559,115.262573 200.224487,115.851034 200.050124,116.346683 C199.873733,116.842333 199.604077,117.247146 199.267515,117.615427 C198.930953,117.981734 198.529511,118.311509 197.941541,118.594878 C197.352557,118.880222 196.579072,119.119161 195.790381,119.246529 L195.790381,119.246529 L199.938612,125.026473 C200.002478,125.115335 200.079522,125.194323 200.172787,125.257513 C200.267065,125.321691 200.376549,125.371058 200.517459,125.406603 C200.657355,125.439185 200.829691,125.45597 201,125.452021 L201,125.452021 L201,126 L195.166929,126 L195.166929,125.452021 C195.246001,125.453996 195.327101,125.447084 195.407186,125.429312 C195.488286,125.413514 195.567358,125.388831 195.63021,125.360197 C195.692048,125.334526 195.737666,125.305893 195.773147,125.269361 C195.808628,125.230855 195.835999,125.186424 195.846137,125.145943 C195.858301,125.107436 195.854246,125.074853 195.835999,125.018575 C195.820793,124.962296 195.794436,124.885282 195.711309,124.749028 C195.63021,124.611786 195.486258,124.421228 195.345348,124.227707 L195.345348,124.227707 L191.921942,119.489417 L187.461478,119.489417 L187.460464,124.905029 C187.460464,124.984017 187.470601,125.06498 187.498986,125.130145 C187.528385,125.198272 187.572989,125.249614 187.6328,125.294045 C187.694638,125.34045 187.774724,125.378957 187.904483,125.408578 C188.035256,125.435236 188.217729,125.453996 188.397162,125.452021 L188.397162,125.452021 L188.397162,126 L183,126 L183,125.452021 C183.12469,125.453996 183.250394,125.44511 183.357851,125.427337 C183.466321,125.408578 183.557558,125.382907 183.631561,125.3444 C183.706578,125.307868 183.764361,125.259488 183.802884,125.211108 C183.842419,125.162728 183.864722,125.117309 183.879928,125.06498 C183.895134,125.014625 183.905271,124.960321 183.905271,124.905029 L183.905271,124.905029 L183.904258,111.094971 C183.904258,111.019932 183.893107,110.946868 183.861681,110.879728 C183.832282,110.813576 183.78565,110.754335 183.716715,110.705955 C183.648795,110.657575 183.560599,110.619068 183.436923,110.59241 C183.31426,110.564764 183.15713,110.547979 183,110.547979 L183,110.547979 L183,110 Z M193.248542,113 L188,113 L188,118 L193.248542,118 C193.630057,118 194.010586,117.961614 194.349711,117.925422 C194.690807,117.888133 194.989513,117.843167 195.323708,117.728011 C195.660861,117.612854 196.032517,117.426409 196.284889,117.209256 C196.535289,116.9932 196.668376,116.750823 196.775831,116.509542 C196.885258,116.26497 196.970039,116.022593 196.993699,115.736346 C197.016373,115.449002 196.975954,115.116692 196.903003,114.823865 C196.832023,114.529941 196.725554,114.276596 196.56585,114.06712 C196.406146,113.857644 196.194193,113.692038 195.932949,113.552753 C195.672691,113.413468 195.366098,113.302698 195.098939,113.22154 C194.830794,113.139285 194.604054,113.089932 194.301405,113.055933 C193.999742,113.019741 193.624142,113 193.248542,113 L193.248542,113 Z" id="Combined-Shape" fill="#F8C823"></path>
        <path d="M174.714146,112.5856 L179.676765,112.5856 C179.782311,112.5856 179.887857,112.605665 179.968971,112.630747 C180.049108,112.655828 180.10579,112.689938 180.160518,112.729065 C180.216223,112.766185 180.268996,112.807318 180.313951,112.859487 C180.357928,112.914665 180.394087,112.981883 180.418519,113.060136 C180.443929,113.140395 180.458588,113.234701 180.458588,113.328002 L181,113.328002 L181,109 L180.458588,109 C180.458588,109.090292 180.444906,109.178578 180.417542,109.260844 C180.390178,109.341104 180.35011,109.415344 180.295382,109.481558 C180.242609,109.550782 180.1742,109.610977 180.068654,109.658129 C179.964085,109.705282 179.819448,109.742402 179.676765,109.742402 L166.323235,109.742402 C166.220621,109.742402 166.118006,109.719327 166.03787,109.693243 C165.957733,109.670168 165.900073,109.640071 165.843391,109.602951 C165.786709,109.567837 165.731981,109.524698 165.686049,109.468516 C165.641095,109.413337 165.604935,109.347123 165.579526,109.26586 C165.555094,109.1856 165.541412,109.094305 165.541412,109.002006 L165,109 L165,113.328002 L165.541412,113.328002 C165.548253,113.232694 165.565844,113.136382 165.592231,113.054116 C165.619594,112.973857 165.653799,112.906639 165.705595,112.844438 C165.758368,112.779227 165.8258,112.719032 165.932323,112.67188 C166.03787,112.624727 166.180552,112.5856 166.323235,112.5856 L171.285854,112.5856 L171.285854,124.8874 C171.285854,124.953615 171.274127,125.020832 171.255558,125.077014 C171.23699,125.134199 171.210603,125.185364 171.175421,125.23051 C171.142194,125.27666 171.099194,125.321806 171.049353,125.355916 C170.997557,125.389023 170.936966,125.412098 170.88517,125.42815 C170.832397,125.441192 170.788419,125.445205 170.744442,125.443199 L170.744442,126 L175.375763,126 L175.375763,125.443199 C175.272172,125.441192 175.168581,125.424137 175.086489,125.399056 C175.005375,125.370965 174.944784,125.333845 174.894943,125.294718 C174.844124,125.255592 174.803078,125.212452 174.771806,125.144231 C174.740533,125.075007 174.714146,124.980702 174.714146,124.8874 L174.714146,112.5856" id="Fill-7" fill="#F8C823"></path>
        <path d="M147.425673,125.67274 C147.472092,125.61432 147.525425,125.559999 147.576782,125.517978 C147.630115,125.478006 147.679497,125.448284 147.742706,125.435985 C147.806902,125.422661 147.882951,125.427786 147.965912,125.438035 C148.047887,125.450334 148.135787,125.469807 148.265168,125.520028 C148.396524,125.570249 148.566398,125.648142 148.763926,125.742434 C148.960466,125.834676 149.182686,125.940242 149.438485,126.050932 C149.694283,126.160598 149.982674,126.275388 150.314522,126.383003 C150.645381,126.493694 151.019697,126.59516 151.44142,126.687402 C151.86413,126.779644 152.334247,126.861637 152.884362,126.915957 C153.433491,126.969253 154.060642,126.99795 154.619647,127 C155.178651,127 155.667533,126.975402 156.180119,126.929281 C156.693692,126.88316 157.229981,126.817566 157.772195,126.7079 C158.31441,126.59926 158.861563,126.445523 159.366247,126.24874 C159.870932,126.055032 160.33216,125.814177 160.766722,125.534377 C161.201283,125.252526 161.608191,124.929679 161.937076,124.555586 C162.26596,124.181494 162.513858,123.75513 162.704472,123.244724 C162.894099,122.734319 163.025455,122.138845 162.995826,121.396809 C162.967185,120.653748 162.779533,119.7631 162.364724,119.07231 C161.950903,118.38152 161.309924,117.891612 160.573144,117.557491 C159.837352,117.22337 159.003783,117.047085 158.142561,116.918971 C157.28035,116.790857 156.390486,116.712964 155.523338,116.654544 C154.658165,116.596124 153.81472,116.558202 153.088804,116.446487 C152.362888,116.333747 151.751539,116.146188 151.349569,115.881761 C150.947599,115.619383 150.752046,115.283212 150.680936,114.991113 C150.610814,114.699013 150.662171,114.450984 150.739207,114.243952 C150.815255,114.037945 150.915007,113.871909 151.074017,113.714073 C151.231052,113.555212 151.446358,113.407624 151.814748,113.243639 C152.184125,113.079653 152.705599,112.901318 153.464107,112.811126 C154.222615,112.722984 155.217169,112.720934 156.114935,112.855197 C157.013687,112.98946 157.813676,113.256962 158.424038,113.527539 C159.035388,113.796066 159.456123,114.066642 159.736612,114.288023 C160.017102,114.510429 160.15636,114.686714 160.255124,114.875298 C160.355863,115.062856 160.415122,115.266814 160.432899,115.473846 L160.737092,115.60196 L162.834841,111.654001 L162.469414,111.401873 C162.421019,111.456193 162.359786,111.498214 162.256084,111.529987 C162.152381,111.561759 162.007198,111.584307 161.886706,111.590456 C161.766214,111.593531 161.670413,111.582257 161.476835,111.527937 C161.283258,111.473616 160.991904,111.379325 160.619563,111.241986 C160.24821,111.103623 159.794883,110.919139 159.278347,110.744904 C158.761811,110.570669 158.180091,110.406684 157.384053,110.261146 C156.588014,110.116634 155.574695,109.98852 154.474464,110.000819 C153.37522,110.012093 152.187088,110.162755 151.212287,110.461004 C150.236498,110.761303 149.473052,111.211239 148.914047,111.675524 C148.355043,112.142884 147.997517,112.622542 147.735792,113.105275 C147.47308,113.585959 147.305181,114.066642 147.228145,114.5586 C147.151109,115.049532 147.165924,115.551739 147.22617,116.045746 C147.288391,116.540779 147.395056,117.026587 147.66567,117.525719 C147.936283,118.021776 148.36887,118.532182 148.809357,118.872452 C149.249845,119.212723 149.698234,119.384908 150.23551,119.546844 C150.773775,119.70878 151.399939,119.861492 152.207829,119.973207 C153.016706,120.085947 154.006322,120.157691 154.858656,120.205862 C155.711977,120.254033 156.426041,120.279656 156.937639,120.338076 C157.448249,120.395471 157.754418,120.485663 158.036883,120.561506 C158.319348,120.636325 158.576135,120.69577 158.794403,120.81261 C159.012672,120.930474 159.18946,121.104709 159.311927,121.314816 C159.434394,121.526973 159.501554,121.770902 159.509455,121.978959 C159.517356,122.184966 159.465999,122.355101 159.388963,122.537536 C159.311927,122.71997 159.209212,122.917778 159.015635,123.106361 C158.822057,123.29392 158.538604,123.472255 158.194906,123.631116 C157.851207,123.788952 157.447262,123.925266 156.754926,124.060554 C156.064565,124.194817 155.085813,124.329081 154.054716,124.245038 C153.02362,124.163045 151.938203,123.862746 151.187596,123.59012 C150.436989,123.316468 150.020205,123.07049 149.740703,122.881906 C149.463176,122.693322 149.322931,122.564183 149.222191,122.437094 C149.12244,122.31308 149.060218,122.191115 149.0217,122.0794 C148.98417,121.967685 148.969355,121.861094 148.975281,121.756553 L148.671088,121.598717 L147,125.420611 L147.425673,125.67274" id="Fill-8" fill="#F8C823"></path>
        <path d="M128,110 L128,110.54184 C128.160599,110.54184 128.320207,110.562342 128.431239,110.590654 C128.543262,110.621895 128.606708,110.65997 128.660241,110.698046 C128.714766,110.736121 128.759377,110.772244 128.793083,110.834726 C128.826789,110.900137 128.854546,110.991908 128.854546,111.082703 L128.854546,119.955205 C128.854546,120.275427 128.869417,120.596626 128.891227,120.874868 C128.914028,121.155063 128.943768,121.391324 129.01812,121.737906 C129.093463,122.085465 129.211434,122.539439 129.424575,122.998294 C129.636724,123.456173 129.943052,123.917957 130.341576,124.29578 C130.7401,124.67458 131.229829,124.968442 131.75128,125.194941 C132.273724,125.422416 132.825907,125.582527 133.342402,125.690895 C133.858897,125.800239 134.338712,125.856864 134.831415,125.904702 C135.3261,125.95254 135.832682,125.988663 136.618825,125.998426 C137.403976,126.006236 138.46869,125.98671 139.366856,125.900797 C140.267004,125.816836 140.999614,125.670393 141.643003,125.466349 C142.287382,125.262305 142.84254,125.002612 143.320372,124.657983 C143.799196,124.314329 144.199703,123.885739 144.4981,123.381975 C144.796497,122.880163 144.991794,122.303177 145.115713,121.717404 C145.240623,121.133584 145.26739,120.54293 145.26739,119.955205 L145.26739,111.082703 C145.26739,111.022173 145.273338,110.96262 145.2892,110.911853 C145.307044,110.862062 145.329845,110.823987 145.363551,110.782006 C145.396266,110.738073 145.436911,110.692188 145.499367,110.654113 C145.562813,110.616038 145.647078,110.585773 145.734317,110.566247 C145.821556,110.547697 145.910778,110.537934 146,110.54184 L146,110 L141.118577,110 L141.118577,110.54184 C141.299994,110.545745 141.481412,110.566247 141.605331,110.596512 C141.72925,110.6258 141.793688,110.663876 141.84623,110.699998 C141.898772,110.736121 141.939417,110.772244 141.971141,110.836679 C142.003855,110.900137 142.033596,110.991908 142.033596,111.082703 L142.033596,120.10653 C142.033596,120.399416 142.000881,120.695231 141.945365,120.971521 C141.88985,121.24781 141.811533,121.507502 141.652916,121.785744 C141.495291,122.065939 141.258358,122.367612 140.936168,122.599968 C140.615961,122.833301 140.210497,122.998294 139.78025,123.122282 C139.350003,123.248223 138.894972,123.330232 138.208955,123.374164 C137.522939,123.42005 136.605937,123.42786 135.841604,123.349757 C135.078262,123.273607 134.466597,123.115448 134.013548,122.916286 C133.5605,122.720052 133.266068,122.485743 133.043014,122.241671 C132.821942,121.999551 132.671256,121.747669 132.568156,121.483095 C132.466046,121.215592 132.409539,120.933445 132.374842,120.701089 C132.340144,120.468732 132.332213,120.287143 132.332213,120.10653 L132.333205,111.082703 C132.333205,111.022173 132.339153,110.960667 132.357989,110.907948 C132.376824,110.854252 132.404582,110.808366 132.438288,110.764433 C132.471994,110.7205 132.509666,110.67852 132.57113,110.646302 C132.631602,110.612132 132.713884,110.589678 132.790219,110.570152 C132.865561,110.552579 132.934956,110.543792 133.00336,110.54184 L133.00336,110 L128,110" id="Fill-9" fill="#F8C823"></path>
        <path d="M120.817523,110 L120.816526,110.547979 C120.730747,110.564764 120.646963,110.594384 120.560187,110.630916 C120.473411,110.669423 120.382645,110.715828 120.312825,110.792842 C120.243005,110.869855 120.194131,110.975501 120.180167,111.064363 C120.166203,111.15125 120.187149,111.222339 120.201113,111.303301 C120.216074,111.386239 120.224054,111.47905 120.286892,111.646899 C120.350727,111.814749 120.48139,112.045788 120.603076,112.281765 L120.603076,112.281765 L126.986613,124.662141 C127.075385,124.832953 127.193081,124.985992 127.361646,125.119284 C127.530212,125.249614 127.765604,125.352299 128,125.452021 L128,125.452021 L128,126 L122.597932,126 L122.597932,125.452021 C122.684708,125.44511 122.771484,125.421413 122.840307,125.390805 C122.909129,125.360197 122.959,125.319716 122.996903,125.28121 C123.034805,125.242703 123.060738,125.207158 123.074702,125.162728 C123.087669,125.119284 123.088666,125.06498 123.083679,125.004752 C123.079689,124.943536 123.070712,124.873434 123.031813,124.753965 C122.992913,124.632521 122.92808,124.459735 122.843299,124.297809 L122.843299,124.297809 L121.677306,122.046652 L114.187621,122.046652 L113.082472,124.204998 C112.991706,124.381734 112.929865,124.571305 112.871017,124.731256 C112.812169,124.891206 112.767284,125.024499 112.775264,125.117309 C112.784241,125.209133 112.845084,125.259488 112.901937,125.303919 C112.957793,125.350324 113.009659,125.390805 113.085464,125.417464 C113.161268,125.44511 113.261011,125.457945 113.358759,125.452021 L113.358759,125.452021 L113.358759,126 L109,126 L109,125.452021 C109.085779,125.435236 109.17056,125.408578 109.252349,125.371058 C109.334138,125.334526 109.413932,125.290096 109.508688,125.194323 C109.603444,125.097562 109.713161,124.94946 109.811906,124.792471 C109.910651,124.634496 109.993438,124.464671 110.07423,124.297809 L110.07423,124.297809 L115.752585,112.464425 C115.916164,112.122802 116.109665,111.795002 116.201428,111.550139 C116.293191,111.307251 116.31314,111.161123 116.296184,111.052515 C116.279227,110.942919 116.226364,110.87183 116.164523,110.809627 C116.102683,110.746436 116.032863,110.696081 115.942097,110.651651 C115.852328,110.60722 115.742611,110.570688 115.629902,110.547979 L115.629902,110.547979 L115.629902,110 L120.817523,110 Z M118.640562,114 L116,120 L121,120 L118.640562,114 Z" id="Combined-Shape" fill="#F8C823"></path>
        <polyline id="Fill-11" fill="#F8C823" points="153 33 143 33.0249248 143 99 152.999043 99 153 33"></polyline>
        <path d="M70.001991,98.9890336 L80.3602338,98.9651068 L80.4129855,50.7297363 C80.4139808,48.7029395 81.2769189,46.7698559 82.5180767,45.5336395 C83.7592344,44.297423 85.7498644,43.3164255 87.8579415,43.3124377 L113.090171,43.2645842 C116.170671,43.2586025 119.528864,43.0941059 121.849938,45.444911 C124.172008,47.7957161 125.329559,51.7865019 125.551514,55.7563518 C125.774465,59.7262016 125.062815,63.6731217 122.752689,66.1963989 C120.442563,68.7176822 116.592684,69.1752817 113.090171,69.1772756 L85.9917259,69.1952207 L85.9917259,79.1238331 L128.272706,99 L134.769126,99 L134.687511,90.3624362 L112.086894,79.6572007 L112.946846,79.728981 C118.906792,80.2254615 125.261878,78.4050331 129.513863,74.2148576 C133.765849,70.024682 135.897814,63.628259 135.99635,57.0194858 C136.095881,50.4097157 134.161984,43.5885925 129.947821,39.0843781 C125.735648,34.5811607 119.273068,33 113.161834,33 L87.9365713,33 C82.8833573,33 78.094897,35.2989638 75.1049708,38.2449473 C72.11604,41.1899338 69.999005,45.814779 70,50.6719132 L70.001991,98.9890336" id="Fill-12" fill="#F8C823"></path>
        <path d="M215.582189,50.628697 L215.631315,52.3415463 L180.861848,52.4132886 C174.972694,52.4252457 168.88503,54.0653562 164.397482,58.388831 C159.91194,62.7123058 157.041554,69.2996513 157,75.8351828 C156.959343,82.367725 159.745512,88.8504461 164.313266,93.1201141 C168.882022,97.3907786 175.211308,98.9780787 181.294962,98.9820644 L206.690308,99 L206.616117,88.6870329 L181.728077,88.6521582 C178.918848,88.6481725 176.022395,88.2884642 173.900936,87.2681281 C171.778475,86.2467956 170.435018,84.7362199 169.458505,82.7961864 C168.482995,80.8581457 167.873426,78.4896508 167.800238,76.182934 C167.72705,73.8772136 168.188237,71.6352643 169.175778,69.4929571 C170.163319,67.3516464 171.678217,65.3119707 173.82875,64.0704289 C175.979284,62.83088 178.730363,62.8249015 181.367148,62.8249015 L215.604245,62.8109516 L215.604245,98.9571539 L225.975933,98.9571539 L226,50.7104036 C226.004005,45.6206803 223.504574,40.8358621 220.516886,37.8834639 C217.531204,34.9320621 212.90129,33 208.076876,33 L167.48242,33 L167.48242,43.3777345 L208.076876,43.3827166 C210.285559,43.3827166 212.3609,44.4508809 213.612119,45.6585443 C214.863339,46.8662077 215.529052,48.7145704 215.582189,50.628697" id="Fill-13" fill="#F8C823"></path>
        <polyline id="Fill-14" fill="#F8C823" points="29.9302359 99 40.4141254 98.96512 40.4141254 43.2806408 70 43.310538 69.9748274 33 0 33 0 43.3374455 29.9362773 43.3374455 29.9302359 99"></polyline>
        <path d="M245.853098,98.9421691 L287,99 L286.974918,88.6073905 L245.92734,88.6073905 C243.766307,88.6073905 241.719647,87.6132975 240.483625,86.3639509 C239.245596,85.1136072 238.504183,83.1423715 238.504183,81.1053284 L238.504183,33 L228,33 L228.047153,80.7742964 C228.05217,85.738779 229.937304,90.5227894 232.905965,93.5499373 C235.872619,96.5800764 240.722402,98.9341924 245.853098,98.9421691" id="Fill-15" fill="#F8C823"></path>
        <path d="M326.316201,77.0777763 C326.304244,80.2813104 325.114536,83.3721775 323.190477,85.3014767 C321.265422,87.231773 318.091871,88.6575601 314.76587,88.6535719 L292.023914,88.6356249 L292,99 L314.54965,98.9720825 C320.748288,98.9641061 326.647008,96.2600959 330.353636,92.633811 C334.06126,89.007526 336.789418,83.270478 336.789418,77.220355 L336.789418,54.5363821 C336.789418,51.4863943 337.736999,48.5101885 339.562414,46.6387183 C341.389822,44.7672482 344.486649,43.2995849 347.747884,43.3065643 L371,43.3544229 L370.953169,33.031924 L347.837561,33 C341.542272,32.9910448 335.680419,36.2853108 332.105316,39.9096017 C328.530214,43.5348896 326.404881,49.0416182 326.387942,54.7517458 L326.316201,77.0777763" id="Fill-16" fill="#F8C823"></path>
        <path d="M258.367957,0.00980195069 C258.7558,0.0277689022 259.101442,0.0736844449 259.433018,0.144554087 C259.764593,0.216421893 260.083107,0.314241962 260.388558,0.436017967 C260.697024,0.557793971 260.993432,0.704524075 261.295869,0.887188082 C261.595292,1.06985209 261.901748,1.28845 262.186099,1.52501486 C262.473465,1.76257789 262.73973,2.02010419 262.951737,2.25467272 C263.163744,2.49023942 263.322499,2.70384651 263.431014,2.88052153 C263.538525,3.05719656 263.595797,3.19693951 263.624936,3.30873388 C263.654074,3.41953008 263.656084,3.50337585 263.639003,3.57524366 C263.620917,3.64711146 263.58575,3.7070013 263.522449,3.76489481 C263.460153,3.82179016 263.371733,3.87569101 263.234079,3.92260472 C263.09542,3.96852026 262.906522,4.00744866 262.749778,4.03839174 C262.593033,4.06933482 262.467436,4.09428892 262.343849,4.12722833 C262.220262,4.16016775 262.096674,4.20209063 262.013278,4.24900434 C261.930887,4.29691621 261.886676,4.3498189 261.860552,4.41270323 C261.835433,4.47558756 261.825385,4.54945169 261.841462,4.65026626 C261.854524,4.75207898 261.89371,4.88084213 261.974092,5.05252634 C262.054474,5.22421054 262.177056,5.43781763 262.27251,5.61149816 C262.368968,5.78517869 262.437293,5.9179345 262.484517,6.03671601 C262.531742,6.15649569 262.556861,6.26230107 262.555856,6.35712665 C262.553847,6.45195222 262.523703,6.535798 262.482508,6.61465295 C262.443321,6.69250974 262.392078,6.76437755 262.348873,6.83125453 C262.305667,6.89813152 262.2705,6.95802136 262.24739,7.03887264 C262.222271,7.11872576 262.208204,7.21854216 262.214233,7.34830347 C262.222271,7.47806479 262.2494,7.63777102 262.27251,7.80146991 C262.298634,7.96417064 262.319734,8.1288677 262.323753,8.28258495 C262.327772,8.43530404 262.313706,8.57704332 262.278538,8.70181382 C262.245381,8.82558615 262.190118,8.93139153 262.082607,9.06813999 C261.976101,9.20488846 261.815338,9.37258001 261.69175,9.49934683 C261.568163,9.62611366 261.481752,9.71095759 261.384289,9.82774278 C261.287831,9.94552613 261.181325,10.0942526 261.096924,10.2639404 C261.012523,10.4346265 260.950227,10.6252758 260.909031,10.8348902 C260.867835,11.0455028 260.84774,11.2750805 260.853769,11.5086509 C260.859797,11.7442176 260.888936,11.983777 260.940179,12.2103602 C260.991423,12.4359452 261.063766,12.647556 261.152187,12.8312182 C261.242616,13.0148803 261.346108,13.1715921 261.462662,13.3073424 C261.578211,13.4440908 261.705817,13.5598779 261.843471,13.6527071 C261.98012,13.7455364 262.129832,13.8144097 262.300643,13.8673124 C262.471455,13.9192169 262.665376,13.9541526 262.885422,13.9661306 C263.106472,13.9781086 263.353647,13.9671288 263.650055,13.9182187 C263.944454,13.8703069 264.288087,13.7844648 264.658848,13.6726704 C265.02961,13.5618742 265.428506,13.4231294 266.198163,13.0647885 C266.968824,12.7064477 268.109243,12.1265144 268.982392,11.6823314 C269.855541,11.2371503 270.460415,10.9277195 271.268253,10.5324465 C272.075087,10.1371736 273.08589,9.65705674 274.049468,9.24780951 C275.013047,8.83856228 275.929401,8.50118286 276.697048,8.24565288 C277.461681,7.99012291 278.078613,7.81744054 278.633248,7.69167188 C279.190898,7.56690138 279.687256,7.49004276 280.127347,7.44612354 C280.566434,7.40320249 280.947243,7.39322085 281.284847,7.41018964 C281.620442,7.42616026 281.908812,7.46808315 282.168044,7.52797299 C282.425266,7.58886099 282.65134,7.66671778 282.855309,7.76353968 C283.059278,7.86135975 283.241142,7.97614861 283.409945,8.11289707 C283.580756,8.24864737 283.738506,8.40735545 283.879174,8.5860268 C284.022857,8.76469815 284.148454,8.96532911 284.255964,9.18492518 C284.36448,9.40452125 284.4529,9.64308244 284.519215,9.89661609 C284.583521,10.1501497 284.626726,10.4176577 284.642802,10.6881601 C284.660888,10.9596607 284.650841,11.235154 284.615674,11.5016638 C284.579502,11.7681735 284.519215,12.026698 284.438833,12.264261 C284.358451,12.5038204 284.257974,12.7214201 284.134387,12.9270419 L300.22685,18.2732081 C300.860863,16.6302302 301.802336,15.1060339 303.041223,13.755518 C304.281114,12.4060003 305.815404,11.2311613 307.48132,10.3567697 C309.14824,9.48337621 310.945781,8.91242642 312.809638,8.66887441 C314.674498,8.4253224 316.606679,8.51016633 318.461492,8.91342458 C320.314296,9.31668282 322.088727,10.0383554 323.656175,11.0295322 C325.224628,12.0217072 326.584087,13.2823883 327.712448,14.7826287 C328.84081,16.281871 329.736064,18.0206727 330.296728,19.8193641 C330.858396,21.6160593 331.084471,23.4736424 330.971936,25.3471962 C330.860406,27.2217481 330.409262,29.1122707 329.678792,30.8301109 C328.947316,32.5489493 327.936513,34.0931089 326.672507,35.3997056 C325.408501,36.7063022 323.893302,37.7723413 322.153033,38.585845 C320.414773,39.3993486 318.449435,39.9583204 316.542374,40.1789147 C314.633303,40.3995089 312.77849,40.2807274 310.976929,39.8205738 C309.17336,39.3604202 307.421034,38.5588945 305.876696,37.5008407 C304.330348,36.4437851 302.991989,35.1292031 301.898795,33.5920306 C300.80761,32.0538599 299.963599,30.2921005 299.449155,28.4634641 C298.937725,26.6358259 298.754856,24.7413107 298.901553,22.8727477 L291.013071,20.5360459 L290.290638,20.3224388 C292.112294,23.9647391 293.964093,27.5910688 295.291399,30.0814879 C296.617701,32.571907 297.418506,33.9254174 298.067591,35.2290195 C298.717679,36.5336198 299.214038,37.7873138 299.502408,38.9212281 C299.790778,40.0561405 299.869151,41.0712733 299.798816,42.1073675 C299.728482,43.1424635 299.506427,44.1995191 299.068346,45.3973159 C298.631269,46.5951127 297.975151,47.9356469 296.951286,49.5436891 C295.926417,51.1517312 294.5338,53.0282795 293.334099,54.4706264 C292.133394,55.9129734 291.130629,56.9221171 290.312743,57.5659329 C289.495862,58.2097487 288.865868,58.4902327 288.198698,58.6120087 C288.715152,59.0362284 289.211511,59.4873985 289.693802,59.9565356 C290.179108,60.4246745 290.653362,60.9107804 291.367756,61.9907938 C292.08416,63.0708072 293.04171,64.7457263 293.621465,66.5044913 C294.200215,68.2642543 294.400165,70.106865 294.272558,71.9724335 C294.144952,73.8399983 293.689789,75.7275264 292.918123,77.4643317 C292.147461,79.2031333 291.058286,80.790214 289.732989,82.1507115 C288.408696,83.5122072 286.850291,84.6461214 285.161266,85.4636177 C283.473245,86.2821122 281.655609,86.7851868 279.769648,86.9448931 C277.885696,87.102603 275.935429,86.919939 274.067554,86.420857 C272.200684,85.921775 270.417209,85.106275 268.856795,84.0322506 C267.296381,82.9562298 265.958022,81.6186901 264.902004,80.0805194 C263.849,78.5423488 263.075324,76.8015508 262.618152,74.9928777 C262.16098,73.1852027 262.019307,71.3076563 262.235333,69.4241209 C262.45136,67.54358 263.022071,65.6560519 263.862063,63.9561786 C264.702054,62.2543091 265.809315,60.7400943 267.168774,59.4794132 C268.527229,58.2187321 270.135873,57.2125828 271.912313,56.494903 C273.688754,55.7782212 275.632992,55.3500089 277.591297,55.2481962 C277.15824,54.5175401 276.68901,53.8078455 276.237866,53.1919784 C275.786723,52.5761112 275.35266,52.0550696 274.99697,51.6637893 C274.642285,51.2735072 274.366977,51.0149827 274.067554,50.8083628 C273.769136,50.6017429 273.444594,50.4490238 273.040675,50.2613689 C272.638765,50.072716 272.153459,49.8501254 271.786717,49.7023971 C271.419974,49.555667 271.17079,49.482801 270.930649,49.4508598 C270.689503,49.4179204 270.460415,49.4249075 270.242379,49.4488635 C270.024343,49.4728194 269.820374,49.512746 269.511908,49.6684595 C269.202437,49.823175 268.786461,50.0946756 268.486033,50.292312 C268.185606,50.4909467 268.000727,50.6157172 267.751543,50.7754234 C267.50035,50.9351296 267.18686,51.1297716 266.958777,51.2425641 C266.733707,51.3543585 266.596053,51.3843034 266.466437,51.3912906 C266.336821,51.3982777 266.215244,51.3823071 266.085628,51.3214191 C265.954002,51.2605311 265.815344,51.1547257 265.708838,51.0628946 C265.603336,50.9710635 265.529988,50.8932067 265.418458,50.7903959 C265.306928,50.687585 265.159226,50.55982 265.022577,50.4779705 C264.884923,50.3951229 264.759326,50.3581909 264.6066,50.347211 C264.45086,50.3372294 264.268996,50.3532 264.001726,50.4370458 C263.734456,50.5218897 263.38178,50.675607 262.614133,51.0608983 C261.846486,51.4471877 260.665876,52.0660494 259.585744,52.6449845 C258.508626,53.2249178 257.53299,53.7659227 256.744242,54.2709936 C255.955494,54.7760646 255.351625,55.2452017 254.795985,55.6943754 C254.238335,56.1425511 253.72992,56.5707634 253.086864,57.2395333 C252.442804,57.9083031 251.664104,58.8176305 251.063249,59.5243306 C250.462394,60.2310307 250.039384,60.7331072 249.508863,61.3459799 C248.979347,61.9578544 248.343325,62.6795269 247.954477,63.0688109 C247.566635,63.4570967 247.424961,63.5169865 247.322474,63.5449351 C247.218983,63.5738818 247.155682,63.5738818 247.107453,63.5489277 C247.058219,63.5229755 247.025061,63.4760618 247.008985,63.3892215 C246.992909,63.3033794 246.994918,63.1786089 247.044152,62.9789761 C247.091376,62.7803415 247.187835,62.5058464 247.361661,62.1375239 C247.538501,61.7682032 247.797733,61.3050551 248.196628,60.7101494 C248.596528,60.1152437 249.138101,59.3885803 249.830391,58.5391428 C250.525695,57.6897052 251.371715,56.7164954 252.254911,55.7792194 C253.136098,54.8429416 254.054462,53.9406013 254.884405,53.1760077 C255.712339,52.410416 256.453862,51.783569 257.162228,51.2445605 C257.872604,50.7055519 258.549821,50.25538 259.250149,49.8371493 C259.949472,49.4199167 260.671904,49.0336273 261.471705,48.6643066 C262.27251,48.2939878 263.149678,47.9406377 264.088137,47.6122418 C265.027601,47.2828477 266.027351,46.9794058 267.07533,46.7108997 C268.125319,46.4423936 269.221528,46.2098214 270.330799,46.0221666 C271.441074,45.8345117 272.565417,45.6927724 273.693778,45.5969487 C273.66263,45.2495876 273.576219,44.9072174 273.442585,44.5917976 C273.307945,44.2773759 273.125076,43.9889065 272.899002,43.7333766 C272.671923,43.4768484 272.400634,43.2522615 272.087144,43.0685994 C271.77265,42.883939 271.415955,42.7392053 270.999978,42.6373925 C270.586011,42.536578 270.112763,42.4796826 269.509898,42.4856716 C268.910048,42.4906624 268.177568,42.5575394 266.896481,42.823051 C265.614389,43.0885626 263.78369,43.5527089 262.638248,43.8421764 C261.489791,44.1326422 261.028599,44.247431 260.215737,44.4261024 C259.403879,44.6037756 258.24236,44.8453312 257.276772,44.9860724 C256.311184,45.1268135 255.541527,45.16674 254.892443,45.1487731 C254.242354,45.1308061 253.714848,45.0549457 253.233561,44.9311733 C252.755289,44.807401 252.325245,44.6347186 251.936398,44.4171189 C251.54956,44.1995191 251.206932,43.9380002 250.896456,43.6305657 C250.587991,43.3231312 250.313687,42.9707793 250.07857,42.5625302 C249.840439,42.153283 249.640489,41.6891368 249.494796,41.2080217 C249.371209,40.8047635 249.281784,40.3915236 249.212455,39.8624967 C249.14413,39.3324716 249.096906,38.6866595 249.067767,37.4020225 C249.037624,36.1163873 249.028581,34.1929253 248.992409,32.1836213 C248.955233,30.1753153 248.894946,28.0811673 248.880879,26.5400022 C248.866812,24.998837 248.902984,24.0086583 248.96528,23.2161161 C249.028581,22.4235739 249.118006,21.8296664 249.216474,21.3076266 C249.314942,20.786585 249.422453,20.3394076 249.550059,19.9421383 C249.677665,19.544869 249.823357,19.197508 249.98814,18.8760992 C250.152923,18.5546904 250.336797,18.260232 250.537752,17.9797479 C250.739712,17.700262 250.960762,17.4347504 251.208941,17.1911984 C251.456116,16.9486446 251.730419,16.7270522 252.1052,16.476513 C252.47998,16.2259738 252.955239,15.9444916 253.229542,15.7837872 C253.50686,15.6230828 253.585232,15.5821581 253.686714,15.5162793 C253.789201,15.4494023 253.916808,15.356573 254.024318,15.2577548 C254.130824,15.1589366 254.219245,15.0531312 254.281541,14.9353478 C254.346851,14.8175645 254.388047,14.686805 254.438285,14.3604054 C254.491538,14.0350039 254.556849,13.5129642 254.621154,13.0418308 C254.686465,12.5696992 254.75278,12.1494722 254.77187,11.8590065 C254.791966,11.5685407 254.766847,11.4088345 254.732684,11.2890548 C254.697517,11.1692752 254.656321,11.0884239 254.600054,11.0265377 C254.544791,10.9636534 254.474457,10.918736 254.377999,10.8828021 C254.281541,10.8478664 254.159963,10.8229123 253.943936,10.8328939 C253.72791,10.8438737 253.41844,10.8907874 253.212461,10.9227287 C253.006482,10.9536717 252.906005,10.9696424 252.74926,10.9826185 C252.59352,10.9955946 252.383522,11.0065744 252.222758,10.9906038 C252.064004,10.973635 251.954484,10.9317121 251.854006,10.8728205 C251.754533,10.8139288 251.666113,10.7380683 251.581712,10.6312648 C251.497311,10.5234631 251.416929,10.3837201 251.336547,10.1790965 C251.255161,9.97347472 251.174779,9.70297228 251.100425,9.28074892 C251.026072,8.8575274 250.957748,8.28258495 250.916552,7.71063699 C250.875356,7.13769087 250.861289,6.56574292 250.87837,6.06266828 C250.896456,5.55959363 250.94569,5.12639047 251.016024,4.72612672 C251.086359,4.32586296 251.180807,3.96053495 251.287313,3.64311881 C251.392815,3.3247045 251.512383,3.05420206 251.648027,2.81065006 C251.783672,2.56709805 251.936398,2.35049646 252.115247,2.14287836 C252.292088,1.93625842 252.496057,1.73862195 252.729164,1.55196529 C252.965286,1.36630679 253.229542,1.19062993 253.52595,1.0279292 C253.822359,0.865228475 254.149915,0.715503879 254.518667,0.583746234 C254.890434,0.45198859 255.302391,0.337199733 255.741477,0.244370484 C256.183578,0.151541235 256.653812,0.0786752647 257.103951,0.0387487059 C257.553085,-0.001177853 257.981119,-0.00916316478 258.367957,0.00980195069 Z M276.632071,59.137905 C275.013955,59.3937027 273.449507,60.004775 271.911387,61.0949604 C270.372253,62.1851458 268.855397,63.7574896 267.948118,65.8789864 C267.039827,68.0025134 266.739088,70.6751933 267.243357,72.9946288 C267.747626,75.3120341 269.056902,77.2731498 270.397568,78.662781 C271.739247,80.050382 273.109278,80.8654834 274.737519,81.3983952 C276.364748,81.9313071 278.249173,82.1840596 280.284475,81.8480713 C282.321801,81.5130982 284.508991,80.5914144 286.216214,79.0748995 C287.924449,77.5604147 289.150693,75.4490686 289.686352,73.1742962 C290.220998,70.9005389 290.064047,68.4643703 289.277267,66.3570845 C288.492511,64.2487836 287.075901,62.4713957 285.286658,61.2451908 L282.3056,66.4859984 C283.22908,67.4411795 283.832582,68.7303187 283.919665,70.0164127 C284.008772,71.3055519 283.579435,72.5896157 282.982008,73.4940433 C282.384582,74.3964408 281.618053,74.9171718 280.820134,75.3079738 C280.023227,75.6987759 279.19493,75.960664 278.296765,75.8987447 C277.399612,75.8388556 276.428541,75.4561741 275.582017,74.992287 C274.733469,74.5283999 274.009468,73.9853373 273.528489,72.9682369 C273.048523,71.9531667 272.81259,70.468119 273.135605,69.124166 C273.457608,67.780213 274.337547,66.5763397 275.423041,65.8312781 C276.511573,65.0841864 277.804647,64.7928613 279.032916,64.9573027 L281.504643,59.426185 C279.929056,58.9825993 278.251199,58.8831224 276.632071,59.137905 Z M280.413718,17 C280.233397,17.2298466 280.052086,17.4576591 279.687482,18.0007478 C279.323869,18.5438366 278.776963,19.4022016 277.799071,19.8303671 C276.820188,20.2585325 275.409329,20.2544645 274.379918,20.4497323 C273.350506,20.6439832 272.700559,21.038587 272.042687,21.4057313 C271.386796,21.7738926 270.720997,22.1145943 270.055199,22.4552961 C269.3894,22.7959978 268.723602,23.1377166 268.061766,23.4855375 C267.39993,23.8343754 266.742058,24.1903324 265.689858,24.5320512 C264.636668,24.8727529 263.191132,25.1981994 262.512453,26.0647005 C261.832784,26.9312017 261.921953,28.3367235 262.246927,29.26628 C262.573881,30.1948193 263.13664,30.6463763 264.620816,30.8731718 C266.104001,31.0989503 268.506623,31.0999673 270.922124,31.0603035 C273.338616,31.0196227 275.766998,30.9382611 276.944035,31.3745627 C278.122062,31.8108644 278.048745,32.7648293 278.15773,33.7208282 C278.265724,34.6758101 278.55602,35.631809 278.954311,36.7139185 C279.353592,37.7970449 279.861858,39.0062819 280.26312,40.1189019 C280.665374,41.232539 280.959633,42.2495591 281.483751,41.9454701 C282.007869,41.6423981 282.760856,40.0182169 282.945139,37.5132963 C283.130414,35.0083757 282.746985,31.6237327 282.366529,29.0516887 C281.987063,26.4796448 281.609579,24.7201999 281.489696,23.3828184 C281.369812,22.0434029 281.506539,21.1270677 282.122799,20.2931112 C282.738068,19.4591547 283.830889,18.7106279 285,18.3404325 C284.403555,18.1004158 283.808102,17.8614161 283.043226,17.6386887 C282.279341,17.4149442 281.346034,17.2084891 280.413718,17 Z M314.135895,12.0020427 C311.410369,12.0510472 309.003398,12.9811515 307.130744,14.2993711 C305.259107,15.6185707 303.918734,17.3258855 303.173744,19.2498 L311.359482,21.708843 C312.55737,20.4896124 314.803537,19.9035193 316.330158,20.7120926 C317.860849,21.5206659 318.669958,23.7239057 318.104091,25.2675457 C317.53517,26.8121658 315.591274,27.696206 314.010713,27.5834958 C312.428116,27.4698054 311.211909,26.3583847 310.848573,25.0823089 L302.078648,22.4821331 C301.826247,24.6696915 302.183476,26.9317367 303.119803,28.9046556 C304.058166,30.8785546 305.572573,32.5633274 307.451334,33.8188212 C309.330095,35.0743151 311.570156,35.90053 313.962878,35.9916783 C316.356619,36.0818464 318.898951,35.4359679 321.034184,34.2147771 C323.166364,32.9926063 324.892462,31.1941432 325.927511,28.9242573 C326.963577,26.6533914 327.309611,23.9101226 326.696928,21.2805442 C326.08628,18.6509657 324.515896,16.1340975 322.210699,14.4601056 C319.904485,12.7861138 316.861422,11.9530383 314.135895,12.0020427 Z M276.046304,12.1651944 C274.500291,13.1693896 272.271062,14.9138689 270.285624,15.993331 C268.30119,17.0746986 266.562552,17.4900962 265.427873,17.8578565 C264.293193,18.2256168 263.762472,18.5447869 263.299973,18.9430351 L263,20.6503573 C263.834707,21.0457472 264.79181,21.1467384 266.219439,20.7389628 C267.648072,20.3311872 269.549237,19.4146447 270.83641,18.7991703 C272.125591,18.1836959 272.80379,17.8692895 273.385677,17.5358281 C273.967563,17.2023667 274.453138,16.8508031 275.071142,16.5583099 C275.688143,16.2648639 276.432556,16.0304882 277.18299,15.7818212 C277.931417,15.5331543 278.683857,15.2701962 279.205548,14.6737767 C279.726237,14.0773572 280.018183,13.1465236 279.999121,12.4176723 C279.97705,11.6888211 279.64397,11.1638576 279.049041,11.0314258 C278.451102,10.8999467 277.590311,11.1629048 276.046304,12.1651944 Z M283.726448,14.5251024 L283.292386,15.1689182 L291.013071,17.7092455 L298.517729,20.1787032 L298.732751,19.4630196 L283.726448,14.5251024 Z" id="Combined-Shape" fill="#000000"></path>
    </g>
</svg>